<svg width="48" height="48" viewBox="0 0 48 48" fill="none" xmlns="http://www.w3.org/2000/svg">
<path d="M30.3529 12H34.5882V16M33.8824 12.6667C33.8824 12.6667 28.2353 19.3333 13.4118 24M36 22V34C36 34.6212 36 34.9319 35.8926 35.1769C35.7493 35.5036 35.4744 35.7632 35.1285 35.8985C34.869 36 34.5401 36 33.8824 36C33.2246 36 32.8957 36 32.6362 35.8985C32.2903 35.7632 32.0154 35.5036 31.8721 35.1769C31.7647 34.9319 31.7647 34.6212 31.7647 34V22C31.7647 21.3788 31.7647 21.0681 31.8721 20.8231C32.0154 20.4964 32.2903 20.2368 32.6362 20.1015C32.8957 20 33.2246 20 33.8824 20C34.5401 20 34.869 20 35.1285 20.1015C35.4744 20.2368 35.7493 20.4964 35.8926 20.8231C36 21.0681 36 21.3788 36 22ZM26.1176 26.6667V34C26.1176 34.6212 26.1176 34.9319 26.0102 35.1769C25.8669 35.5036 25.592 35.7632 25.2462 35.8985C24.9867 36 24.6577 36 24 36C23.3423 36 23.0133 36 22.7538 35.8985C22.408 35.7632 22.1331 35.5036 21.9898 35.1769C21.8824 34.9319 21.8824 34.6212 21.8824 34V26.6667C21.8824 26.0455 21.8824 25.7348 21.9898 25.4897C22.1331 25.1631 22.408 24.9035 22.7538 24.7681C23.0133 24.6667 23.3423 24.6667 24 24.6667C24.6577 24.6667 24.9867 24.6667 25.2462 24.7681C25.592 24.9035 25.8669 25.1631 26.0102 25.4897C26.1176 25.7348 26.1176 26.0455 26.1176 26.6667ZM16.2353 30V34C16.2353 34.6212 16.2353 34.9319 16.1278 35.1769C15.9846 35.5036 15.7097 35.7632 15.3638 35.8985C15.1043 36 14.7754 36 14.1176 36C13.4598 36 13.131 36 12.8715 35.8985C12.5256 35.7632 12.2507 35.5036 12.1075 35.1769C12 34.9319 12 34.6212 12 34V30C12 29.3788 12 29.0681 12.1075 28.8231C12.2507 28.4964 12.5256 28.2368 12.8715 28.1015C13.131 28 13.4598 28 14.1176 28C14.7754 28 15.1043 28 15.3638 28.1015C15.7097 28.2368 15.9846 28.4964 16.1278 28.8231C16.2353 29.0681 16.2353 29.3788 16.2353 30Z" stroke="#FD532F" stroke-width="1.5" stroke-linecap="round" stroke-linejoin="round"/>
</svg>
