<svg width="48" height="48" viewBox="0 0 48 48" fill="none" xmlns="http://www.w3.org/2000/svg">
<path d="M23.9138 22.7651C23.9136 23.7256 24.5121 25.279 25.7909 26.3651C27.7128 27.9974 28.6738 28.8137 28.8656 29.115C29.0851 29.4599 29.0396 29.3586 29.1551 29.7577C29.256 30.1066 29.256 30.6064 29.256 31.6061V31.7016C29.256 31.9374 29.256 32.0554 29.2759 32.1673C29.3049 32.33 29.3647 32.4845 29.4519 32.621C29.5117 32.7149 29.5896 32.7978 29.7455 32.9636C30.5146 33.7822 30.899 34.1914 30.9716 34.531C31.0775 35.0268 30.8815 35.5408 30.4825 35.8134C30.2094 36 29.6687 36 28.5876 36H19.9683C18.8466 36 18.2857 36 18.0064 35.8014C17.6227 35.5285 17.4341 35.0298 17.5314 34.5458C17.6023 34.1936 18.0035 33.7715 18.8058 32.9272C18.9684 32.756 19.0497 32.6705 19.1117 32.5729C19.1968 32.4391 19.2558 32.288 19.2852 32.129C19.3067 32.013 19.3067 31.8906 19.3067 31.6458V28.4591C19.3067 27.6049 19.3297 27.644 18.765 26.8538C15.4834 22.2611 17.2019 17.801 20.4585 16.0762C20.4585 13.982 21.5652 12.8555 22.628 12.2942C23.1201 12.0344 23.3662 11.9044 23.64 12.0814C24.2817 12.4962 24.2422 14.4 23.9138 15.6C25.323 15.6 26.4706 16.8 26.4706 18L28.6534 20.2667C29.0553 20.7587 29.4528 21.2747 29.1485 21.961C28.9523 22.4035 28.4836 22.7926 28.1436 23.1168C27.7042 23.5358 27.0331 23.5358 26.5938 23.1168C26.1949 22.7365 25.9001 22.4189 25.323 22.5344C24.8532 22.6285 24.3972 22.7929 23.9138 22.7651ZM23.9138 22.7651C23.2668 22.7279 22.5027 22.4195 21.6913 21.6M19.3333 32.4H28.6667" stroke="#FD532F" stroke-width="1.5" stroke-linecap="round" stroke-linejoin="round"/>
</svg>
