<svg width="32" height="33" viewBox="0 0 32 33" fill="none" xmlns="http://www.w3.org/2000/svg">
<path d="M31.5206 20.3705C29.3837 28.942 20.7022 34.1584 12.1296 32.021C3.56071 29.8841 -1.65575 21.202 0.482106 12.6312C2.61808 4.0587 11.2996 -1.15814 19.8695 0.978775C28.4414 3.11569 33.6576 11.7987 31.5204 20.3706L31.5206 20.3705H31.5206Z" fill="#F7931A"/>
<path fill-rule="evenodd" clip-rule="evenodd" d="M23.0564 14.2204C23.3748 12.0912 21.7537 10.9466 19.5371 10.1831L20.2562 7.29886L18.5004 6.86137L17.8004 9.66969C17.3388 9.55457 16.8648 9.44609 16.3937 9.33856L17.0988 6.51171L15.3442 6.07422L14.6247 8.95754C14.2427 8.87057 13.8676 8.78462 13.5036 8.69406L13.5056 8.68499L11.0844 8.08037L10.6174 9.95561C10.6174 9.95561 11.92 10.2542 11.8925 10.2726C12.6035 10.45 12.7321 10.9207 12.7107 11.2937L11.8916 14.5796C11.9405 14.592 12.004 14.61 12.0741 14.6381L12.0231 14.6254C11.9798 14.6146 11.9348 14.6033 11.8885 14.5922L10.7404 19.1952C10.6535 19.4113 10.433 19.7354 9.93587 19.6123C9.95347 19.6378 8.65978 19.2939 8.65978 19.2939L7.78809 21.3036L10.0729 21.8732C10.323 21.9359 10.5702 22.0004 10.8149 22.0642L10.8151 22.0642C10.9861 22.1088 11.1559 22.153 11.3247 22.1962L10.5981 25.1135L12.3518 25.551L13.0713 22.6646C13.5504 22.7947 14.0154 22.9147 14.4705 23.0278L13.7534 25.9005L15.5093 26.338L16.2357 23.4261C19.2296 23.9927 21.4808 23.7643 22.4284 21.0563C23.1919 18.8761 22.3903 17.6185 20.8153 16.7984C21.9625 16.5339 22.8266 15.7793 23.057 14.2207L23.0564 14.2203L23.0564 14.2204ZM19.0449 19.8455C18.5471 21.8458 15.4161 21.0189 13.9835 20.6405L13.9834 20.6405C13.8546 20.6064 13.7395 20.576 13.6413 20.5517L14.6054 16.6867C14.7251 16.7166 14.8714 16.7494 15.0371 16.7866L15.0371 16.7866C16.5189 17.1191 19.5549 17.8005 19.045 19.8455H19.0449ZM15.3344 14.9928C16.5287 15.3115 19.1341 16.0069 19.5879 14.1888H19.588C20.0514 12.3295 17.5193 11.7689 16.2827 11.4951C16.1436 11.4643 16.0209 11.4371 15.9206 11.4121L15.0465 14.9174C15.129 14.938 15.2259 14.9638 15.3344 14.9928Z" fill="white"/>
</svg>
