<svg width="140" height="50" viewBox="0 0 140 50" fill="none" xmlns="http://www.w3.org/2000/svg">
<mask id="path-1-inside-1_140_955" fill="white">
<path d="M0 0H139.5V49.5H0V0Z"/>
</mask>
<path d="M138.5 0V49.5H140.5V0H138.5ZM1 49.5V0H-1V49.5H1Z" fill="white" fill-opacity="0.52" mask="url(#path-1-inside-1_140_955)"/>
<path d="M12 28.5C12.8 28.9 14.3333 29.3333 15 29.5L18 34.5L19 31.5V28.5L20.5 25.5V28.5H24L26 29.5V33.5L27 39L28.5 40.5L29.5 42V36L30.5 33.5L32 31.5L34 29.5V25.5V18.5L36 16V18.5H38V23.5L40.5 25.5V23.5H42.5L44 21.5L45 7.5L47.5 4V7.5L48.5 15L50 18.5H52V21.5H54H56L57.5 23.5L58.5 28.5H60V31.5H62L65 32.5L68 29.5L70.5 31.5L72.5 29.5H76.5H78.5L80.5 28.5L83.5 31.5L86 28.5L88 27.5L89 28.5L93 31.5L95 32.5L96 34.5H97.5H101.5L103 31.5H106L106.5 31L108 29.5C108.333 29.8333 109 30.6 109 31C109 31.4 110.667 32.1667 111.5 32.5V29.5L113.5 34.5L115.5 29.5L117.5 36C117.833 35.5 118.5 34.8 118.5 36C118.5 37.2 118.5 38.5 118.5 39L120 40.5H120.657V42L121.5 45.5L123.5 43.5L125 42L126.5 40.5V37.5H127.5" stroke="#F7931A" stroke-width="2" stroke-linejoin="bevel"/>
</svg>
